<?xml version="1.0" encoding="UTF-8"?>
<svg width="50px" height="50px" version="1.1" viewBox="0 0 752 752" xmlns="http://www.w3.org/2000/svg" fill="#fff" >
 <path d="m376 144.76c-127.73 0-231.24 103.5-231.24 231.24 0 127.74 103.5 231.24 231.24 231.24 127.74 0 231.24-103.5 231.24-231.24-0.003906-127.73-103.51-231.24-231.25-231.24zm-30.523 156.5c0 23.863-0.46094 39.59-21.645 41.438 0 0 4.7188 28.953 4.7188 32.188v105.91c0 6.0117-3.1445 10.914-9.25 10.73-5.918-0.18359-8.6016-5.2734-8.6016-11.191v-105.54c0-3.2383 4.7188-32.188 4.7188-32.188-21.09-1.7578-21.551-17.48-21.551-41.348v-36.629c0-2.3125 9.1562-2.3125 9.1562 0v33.391c0 16.094-2.5898 32.465 12.766 35.148v-68.633c0-2.3125 9.25-2.3125 9.25 0v68.168c14.43-3.5156 12.211-19.332 12.211-34.777v-33.391c0-2.3125 8.418-2.3125 8.2305 0zm112.48 180c-0.09375 5.7344-4.5312 10.359-10.176 10.359-5.5508 0-10.082-4.625-10.082-10.359v-81.488l-26.824-24.418v-88.055c0-14.707 11.656-26.824 26.082-26.918 14.613-0.09375 21.09 12.023 20.996 26.918z"/>
</svg>
